<svg width="38" height="38" viewBox="0 0 38 38" fill="none" xmlns="http://www.w3.org/2000/svg">
<g clip-path="url(#clip0_288_8744)">
<path fill-rule="evenodd" clip-rule="evenodd" d="M10 14.814C10 12.1553 12.1553 10 14.814 10H23.186C25.8447 10 28 12.1553 28 14.814V23.186C28 25.8447 25.8447 28 23.186 28H14.814C12.1553 28 10 25.8447 10 23.186V14.814ZM14.814 11.2558C12.8489 11.2558 11.2558 12.8489 11.2558 14.814V23.186C11.2558 25.1512 12.8489 26.7442 14.814 26.7442H23.186C25.1512 26.7442 26.7442 25.1512 26.7442 23.186V14.814C26.7442 12.8489 25.1512 11.2558 23.186 11.2558H14.814Z" fill="white"/>
<path fill-rule="evenodd" clip-rule="evenodd" d="M18.7376 21.9783C18.4351 22.2809 17.9445 22.2809 17.6419 21.9783L15.5759 19.9123C15.2734 19.6097 15.2734 19.1192 15.5759 18.8166C15.8785 18.5141 16.369 18.5141 16.6716 18.8166L18.1898 20.3348L21.774 16.7506C22.0766 16.448 22.5671 16.448 22.8697 16.7506C23.1723 17.0532 23.1723 17.5437 22.8697 17.8463L18.7376 21.9783Z" fill="white"/>
</g>
<defs>
<clipPath id="clip0_288_8744">
<rect width="18" height="18" fill="white" transform="translate(10 10)"/>
</clipPath>
</defs>
</svg>
