<svg width="10" height="10" viewBox="0 0 10 10" fill="none" xmlns="http://www.w3.org/2000/svg">
<path fill-rule="evenodd" clip-rule="evenodd" d="M9.41354 1.25094C8.46215 1.30494 6.57118 1.50146 5.40382 2.21605C5.32326 2.26535 5.2776 2.35303 5.2776 2.44469V8.76188C5.2776 8.9624 5.49688 9.08914 5.68177 8.99608C6.88281 8.39157 8.61979 8.22664 9.47865 8.1815C9.77188 8.16605 9.99983 7.93098 9.99983 7.64921V1.78393C10 1.47646 9.73333 1.23289 9.41354 1.25094ZM4.59601 2.21605C3.42882 1.50146 1.53785 1.30511 0.586458 1.25094C0.266667 1.23289 0 1.47646 0 1.78393V7.64938C0 7.93133 0.227951 8.16639 0.521181 8.18167C1.38038 8.22681 3.11823 8.39192 4.31927 8.99678C4.50365 9.08966 4.72222 8.9631 4.72222 8.7631V2.44157C4.72222 2.34973 4.67674 2.26553 4.59601 2.21605Z" fill="#4C4084"/>
</svg>
