<svg width="38" height="38" viewBox="0 0 38 38" fill="none" xmlns="http://www.w3.org/2000/svg">
<g clip-path="url(#clip0_288_8738)">
<path fill-rule="evenodd" clip-rule="evenodd" d="M19.1782 13.5058C20.4054 13.5058 21.4003 14.5007 21.4003 15.728C21.4003 16.9552 20.4054 17.9501 19.1782 17.9501C17.9509 17.9501 16.956 16.9552 16.956 15.728C16.956 14.5007 17.9509 13.5058 19.1782 13.5058ZM22.6561 15.728C22.6561 13.8071 21.099 12.25 19.1782 12.25C17.2573 12.25 15.7002 13.8071 15.7002 15.728C15.7002 17.6488 17.2573 19.206 19.1782 19.206C21.099 19.206 22.6561 17.6488 22.6561 15.728Z" fill="white"/>
<path fill-rule="evenodd" clip-rule="evenodd" d="M22.9919 22.0321C20.5257 21.1513 17.8306 21.1513 15.3644 22.0321C15.037 22.1491 14.8184 22.4592 14.8184 22.8069V23.7442C14.8184 24.2081 15.2294 24.5645 15.6887 24.4989L15.9679 24.459C18.0973 24.1548 20.259 24.1548 22.3884 24.459L22.6676 24.4989C23.1269 24.5645 23.5379 24.2081 23.5379 23.7442V22.8069C23.5379 22.4592 23.3193 22.1491 22.9919 22.0321ZM14.942 20.8495C17.6814 19.8711 20.6749 19.8711 23.4143 20.8495C24.2415 21.1449 24.7937 21.9285 24.7937 22.8069V23.7442C24.7937 24.9724 23.7059 25.9158 22.49 25.7421L22.2108 25.7022C20.1992 25.4148 18.1571 25.4148 16.1455 25.7022L15.8663 25.7421C14.6504 25.9158 13.5626 24.9724 13.5626 23.7442V22.8069C13.5626 21.9285 14.1148 21.1449 14.942 20.8495Z" fill="white"/>
<path fill-rule="evenodd" clip-rule="evenodd" d="M23.4532 14.8061C24.3432 14.8061 25.0647 15.5276 25.0647 16.4175C25.0647 17.3075 24.3432 18.029 23.4532 18.029C23.1065 18.029 22.8253 18.3101 22.8253 18.6569C22.8253 19.0037 23.1065 19.2848 23.4532 19.2848C25.0368 19.2848 26.3205 18.0011 26.3205 16.4175C26.3205 14.834 25.0368 13.5503 23.4532 13.5503C23.1065 13.5503 22.8253 13.8314 22.8253 14.1782C22.8253 14.525 23.1065 14.8061 23.4532 14.8061Z" fill="white"/>
<path fill-rule="evenodd" clip-rule="evenodd" d="M24.6181 20.4094C24.6838 20.0689 25.0131 19.8462 25.3536 19.9119C25.8517 20.008 26.3443 20.1422 26.827 20.3146C27.5305 20.5658 28.0001 21.2322 28.0001 21.9792V22.7157C28.0001 23.7626 27.0729 24.5668 26.0365 24.4187L25.8171 24.3874C25.4738 24.3383 25.2353 24.0203 25.2843 23.677C25.3334 23.3337 25.6514 23.0951 25.9947 23.1442L26.2141 23.1755C26.4939 23.2155 26.7443 22.9984 26.7443 22.7157V21.9792C26.7443 21.7629 26.6083 21.57 26.4046 21.4972C25.9823 21.3464 25.5514 21.229 25.1157 21.1449C24.7752 21.0792 24.5524 20.7499 24.6181 20.4094Z" fill="white"/>
<path fill-rule="evenodd" clip-rule="evenodd" d="M14.5468 14.8061C13.6568 14.8061 12.9354 15.5276 12.9354 16.4175C12.9354 17.3075 13.6568 18.029 14.5468 18.029C14.8936 18.029 15.1747 18.3101 15.1747 18.6569C15.1747 19.0037 14.8936 19.2848 14.5468 19.2848C12.9633 19.2848 11.6796 18.0011 11.6796 16.4175C11.6796 14.834 12.9633 13.5503 14.5468 13.5503C14.8936 13.5503 15.1747 13.8314 15.1747 14.1782C15.1747 14.525 14.8936 14.8061 14.5468 14.8061Z" fill="white"/>
<path fill-rule="evenodd" clip-rule="evenodd" d="M13.382 20.4094C13.3163 20.0689 12.987 19.8462 12.6465 19.9119C12.1484 20.008 11.6558 20.1422 11.1731 20.3146C10.4696 20.5658 10 21.2322 10 21.9792V22.7157C10 23.7626 10.9272 24.5668 11.9636 24.4187L12.183 24.3874C12.5263 24.3383 12.7648 24.0203 12.7158 23.677C12.6667 23.3337 12.3487 23.0951 12.0054 23.1442L11.786 23.1755C11.5062 23.2155 11.2558 22.9984 11.2558 22.7157V21.9792C11.2558 21.7629 11.3918 21.57 11.5955 21.4972C12.0177 21.3464 12.4487 21.229 12.8844 21.1449C13.2249 21.0792 13.4477 20.7499 13.382 20.4094Z" fill="white"/>
</g>
<defs>
<clipPath id="clip0_288_8738">
<rect width="18" height="18" fill="white" transform="translate(10 10)"/>
</clipPath>
</defs>
</svg>
