<svg width="38" height="38" viewBox="0 0 38 38" fill="none" xmlns="http://www.w3.org/2000/svg">
<g clip-path="url(#clip0_288_8750)">
<path fill-rule="evenodd" clip-rule="evenodd" d="M20.7709 11.9707C19.7326 11.151 18.2674 11.151 17.2291 11.9707L12.3981 15.7847C11.7115 16.3267 11.311 17.1532 11.311 18.0279V23.7914C11.311 25.3698 12.5906 26.6493 14.169 26.6493H15.4865C15.6096 26.6493 15.7094 26.5496 15.7094 26.4265V23.7914C15.7094 22.4591 16.7894 21.3791 18.1216 21.3791H19.8784C21.2106 21.3791 22.2906 22.4591 22.2906 23.7914V26.4265C22.2906 26.5496 22.3904 26.6493 22.5135 26.6493H23.831C25.4094 26.6493 26.689 25.3698 26.689 23.7914V18.0279C26.689 17.1532 26.2885 16.3267 25.602 15.7847L20.7709 11.9707ZM16.4167 10.9417C17.9313 9.74598 20.0687 9.74598 21.5833 10.9417L26.4143 14.7557C27.4157 15.5463 28 16.752 28 18.0279V23.7914C28 26.0938 26.1335 27.9603 23.831 27.9603H22.5135C21.6663 27.9603 20.9796 27.2736 20.9796 26.4265V23.7914C20.9796 23.1832 20.4866 22.6901 19.8784 22.6901H18.1216C17.5134 22.6901 17.0204 23.1832 17.0204 23.7914V26.4265C17.0204 27.2736 16.3337 27.9603 15.4865 27.9603H14.169C11.8665 27.9603 10 26.0938 10 23.7914V18.0279C10 16.752 10.5843 15.5463 11.5857 14.7557L16.4167 10.9417Z" fill="white"/>
</g>
<defs>
<clipPath id="clip0_288_8750">
<rect width="18" height="18" fill="white" transform="translate(10 10)"/>
</clipPath>
</defs>
</svg>
