<svg width="24" height="24" viewBox="0 0 24 24" fill="none" xmlns="http://www.w3.org/2000/svg">
<path d="M11.5575 6.84304C11.6603 6.84304 11.7157 6.77991 11.7315 6.68522C11.9686 5.40683 11.9449 5.3437 13.3205 5.09908C13.4153 5.0754 13.4785 5.02016 13.4785 4.91758C13.4785 4.82288 13.4153 4.75975 13.3205 4.74396C11.9449 4.49934 11.9686 4.43621 11.7315 3.15783C11.7157 3.06313 11.6603 3 11.5575 3C11.4547 3 11.3994 3.06313 11.3836 3.15783C11.1465 4.43621 11.1702 4.49934 9.79463 4.74396C9.69187 4.75975 9.63653 4.82288 9.63653 4.91758C9.63653 5.02016 9.69187 5.0754 9.79463 5.09908C11.1702 5.3437 11.1465 5.40683 11.3836 6.68522C11.3994 6.77991 11.4547 6.84304 11.5575 6.84304Z" fill="#FF5C39"/>
<path d="M7.73094 12.272C7.88115 12.272 7.98392 12.1694 7.99973 12.0273C8.28432 9.92037 8.35547 9.92037 10.5374 9.50216C10.6718 9.47848 10.7745 9.38379 10.7745 9.23385C10.7745 9.09182 10.6718 8.98923 10.5374 8.97344C8.35547 8.66568 8.27641 8.59466 7.99973 6.45613C7.98392 6.3062 7.88115 6.20361 7.73094 6.20361C7.58864 6.20361 7.48588 6.3062 7.46216 6.46403C7.20919 8.57099 7.09061 8.5631 4.92452 8.97344C4.79013 8.99712 4.68736 9.09182 4.68736 9.23385C4.68736 9.39168 4.79013 9.47848 4.95615 9.50216C7.10642 9.84939 7.20919 9.90461 7.46216 12.0116C7.48588 12.1694 7.58864 12.272 7.73094 12.272Z" fill="#C5299B"/>
<path d="M13.0911 20.9999C13.2967 20.9999 13.4469 20.8499 13.4864 20.6369C14.0477 16.3203 14.6564 15.6575 18.9411 15.184C19.1625 15.1603 19.3127 15.0025 19.3127 14.7894C19.3127 14.5842 19.1625 14.4265 18.9411 14.4028C14.6564 13.9293 14.0477 13.2664 13.4864 8.94202C13.4469 8.72895 13.2967 8.58691 13.0911 8.58691C12.8856 8.58691 12.7354 8.72895 12.7038 8.94202C12.1425 13.2664 11.5259 13.9293 7.24905 14.4028C7.01979 14.4265 6.86959 14.5842 6.86959 14.7894C6.86959 15.0025 7.01979 15.1603 7.24905 15.184C11.518 15.7443 12.1109 16.3203 12.7038 20.6369C12.7354 20.8499 12.8856 20.9999 13.0911 20.9999Z" fill="#407EC9"/>
</svg>
