<svg width="128" height="23" viewBox="0 0 128 23" fill="none" xmlns="http://www.w3.org/2000/svg">
<path d="M11.1143 0.288086C12.7243 0.288104 14.2234 0.570003 15.5674 1.12598C16.9113 1.68281 18.0991 2.46797 19.0986 3.45898C20.0989 4.45075 20.8789 5.62522 21.417 6.95117C21.9543 8.27648 22.2275 9.7284 22.2275 11.2637C22.2275 12.7997 21.9542 14.25 21.417 15.5752C20.8789 16.9013 20.0991 18.0773 19.0986 19.0684C18.0992 20.0592 16.9112 20.8436 15.5674 21.4004C14.2234 21.9564 12.7243 22.2392 11.1143 22.2393C9.50343 22.2393 8.00037 21.9563 6.64551 21.4004C5.28972 20.8436 4.1008 20.0593 3.11133 19.0674C2.12195 18.0756 1.34778 16.9004 0.810547 15.5752C0.273311 14.2516 2.76717e-05 12.8005 0 11.2637C0 9.72672 0.273284 8.27564 0.810547 6.95117C1.3478 5.62607 2.12211 4.45074 3.1123 3.45898C4.10091 2.46802 5.28979 1.68278 6.64551 1.12598C8.00033 0.570118 9.5035 0.288086 11.1143 0.288086ZM70.2598 5.53809C71.8748 5.53814 73.3549 5.89877 74.6592 6.6084C75.9644 7.31976 77.0148 8.31251 77.7803 9.56055C78.5464 10.8102 78.9355 12.2663 78.9355 13.8887C78.9355 15.5113 78.5466 16.9681 77.7803 18.2178C77.0148 19.4666 75.9644 20.4594 74.6592 21.1699C73.3549 21.8795 71.8747 22.2392 70.2598 22.2393C68.6438 22.2393 67.1574 21.8796 65.8438 21.1699C64.5277 20.4594 63.4715 19.4666 62.7061 18.2178C61.9398 16.9689 61.5508 15.5121 61.5508 13.8887C61.5508 12.2655 61.94 10.8093 62.7061 9.56055C63.4714 8.31266 64.5278 7.31891 65.8438 6.6084C67.1583 5.89787 68.6446 5.53809 70.2598 5.53809ZM88.5742 5.53906C89.7631 5.53906 90.8224 5.786 91.7217 6.27637C92.5133 6.70638 93.1741 7.20725 93.6895 7.7666V5.87012H97.251V21.9365H93.6904V19.6924C93.1801 20.2769 92.472 20.833 91.5811 21.3486C90.563 21.9398 89.3671 22.2393 88.0283 22.2393C86.6028 22.2392 85.2826 21.8774 84.1055 21.167C82.9282 20.4548 81.9815 19.4571 81.291 18.1973C80.6022 16.94 80.252 15.48 80.252 13.8574C80.252 12.2358 80.6119 10.7811 81.3242 9.5332C82.0366 8.28356 83.0322 7.29419 84.2852 6.59375C85.5373 5.89332 86.9793 5.53908 88.5742 5.53906ZM127.947 21.9385H124.419V19.8994C123.929 20.4434 123.252 20.9556 122.405 21.4258C121.429 21.9649 120.311 22.2392 119.078 22.2393C117.546 22.2393 116.146 21.8795 114.915 21.1689C113.686 20.4568 112.701 19.4589 111.988 18.1992C111.278 16.9403 110.915 15.4904 110.915 13.8896C110.915 12.2662 111.278 10.8115 111.988 9.56348C112.701 8.31548 113.675 7.32086 114.884 6.61035C116.094 5.90006 117.473 5.53914 118.981 5.53906C120.189 5.53906 121.301 5.77565 122.284 6.24414C123.157 6.65903 123.875 7.14647 124.419 7.69238V0H127.947V21.9385ZM109.262 5.53906C110.065 5.53908 110.696 5.64414 111.138 5.85156L111.221 5.89062L110.298 9.49121L110.176 9.43359C109.971 9.33703 109.715 9.25343 109.413 9.18457C109.112 9.11572 108.791 9.08107 108.46 9.08105C107.796 9.08105 107.133 9.24492 106.489 9.56738C105.846 9.88905 105.303 10.3557 104.878 10.9512C104.455 11.5424 104.241 12.2572 104.241 13.0742V21.9395H100.682V5.87109H104.241V8.52441C104.712 7.71987 105.37 7.03822 106.201 6.49316C107.167 5.85991 108.196 5.53906 109.262 5.53906ZM33.502 5.53906C35.0363 5.53906 36.245 5.83995 37.0947 6.43457C37.9435 7.02917 38.5455 7.83937 38.8857 8.84375C39.2192 9.83731 39.3887 10.9562 39.3887 12.1689V21.9375H35.8613V12.3799C35.8613 11.6326 35.7556 10.9547 35.5469 10.3652C35.3422 9.78826 34.9901 9.32964 34.5 9.00293C34.0099 8.67622 33.31 8.54068 32.4199 8.59863C31.5796 8.59867 30.8298 8.76608 30.1865 9.09863C29.5433 9.43033 29.0293 9.87597 28.6562 10.4209C28.2857 10.9626 28.0977 11.5719 28.0977 12.2295V21.9385H24.5703V5.87109H28.0977V8.14746C28.6071 7.50339 29.3041 6.92128 30.1738 6.41406C31.1699 5.83377 32.2895 5.53912 33.502 5.53906ZM52.041 0.589844C54.2388 0.589844 55.9242 1.05474 57.0518 1.97266C58.1852 2.89651 58.7607 4.2557 58.7607 6.0127C58.7607 6.97579 58.5122 7.84831 58.0215 8.60742C57.5752 9.29863 56.9253 9.86034 56.0908 10.2803C56.708 10.5028 57.2933 10.8182 57.833 11.2188C58.452 11.679 58.9649 12.2756 59.3564 12.9912C59.7488 13.7092 59.9482 14.59 59.9482 15.6094C59.9482 16.8506 59.7161 17.8948 59.2598 18.7119C58.8034 19.529 58.1973 20.183 57.458 20.6533C56.7237 21.1211 55.9015 21.4562 55.0156 21.6494C54.1356 21.8409 53.243 21.9385 52.3613 21.9385H42.5625V0.589844H52.041ZM119.527 8.44922C118.549 8.44926 117.673 8.68605 116.926 9.15625C116.176 9.62657 115.58 10.2769 115.152 11.0898C114.725 11.9045 114.507 12.8466 114.507 13.8896C114.507 14.9126 114.725 15.8501 115.152 16.6748C115.58 17.4978 116.176 18.1528 116.926 18.623C117.673 19.0916 118.549 19.33 119.527 19.3301C120.528 19.3301 121.414 19.0917 122.162 18.623C122.91 18.1527 123.501 17.4977 123.917 16.6748C124.335 15.8501 124.547 14.9126 124.547 13.8896C124.547 12.8466 124.335 11.9042 123.917 11.0879C123.501 10.275 122.91 9.62488 122.162 9.15625C121.414 8.68593 120.528 8.44922 119.527 8.44922ZM70.2598 8.59863C69.3006 8.59863 68.4172 8.82177 67.6357 9.2627C66.8553 9.70272 66.2332 10.3285 65.7861 11.1211C65.3381 11.9148 65.1215 12.8453 65.1426 13.8867C65.1216 14.912 65.3382 15.8323 65.7861 16.625C66.2341 17.4186 66.8561 18.0498 67.6367 18.5C68.4174 18.951 69.2998 19.1787 70.2598 19.1787C71.2188 19.1786 72.0957 18.9511 72.8652 18.501C73.6348 18.0508 74.2522 17.4195 74.7002 16.626C75.1473 15.8332 75.3639 14.9128 75.3438 13.8916C75.364 12.846 75.1474 11.9149 74.7002 11.1221C74.2514 10.3286 73.6348 9.70271 72.8652 9.2627C72.0949 8.82198 71.2186 8.59869 70.2598 8.59863ZM88.7979 8.62988C87.8397 8.62996 86.9759 8.8585 86.2266 9.30859C85.4788 9.75875 84.8877 10.3833 84.4717 11.166C84.0557 11.9504 83.8438 12.8557 83.8438 13.8584C83.8438 14.8629 84.0557 15.7738 84.4717 16.5684C84.8894 17.3611 85.4791 17.9975 86.2285 18.4561C86.9761 18.9161 87.8398 19.1493 88.7979 19.1494C89.7983 19.1494 90.6868 18.9163 91.4346 18.4561C92.1822 17.9975 92.7735 17.3627 93.1895 16.5684C93.6071 15.7738 93.8193 14.8612 93.8193 13.8584C93.8193 12.8775 93.6064 11.9807 93.1904 11.1963C92.7728 10.412 92.1822 9.78151 91.4346 9.32129C90.6868 8.86272 89.7983 8.62988 88.7979 8.62988ZM11.1133 3.67773C9.66583 3.67773 8.37414 4.01284 7.27441 4.67285C6.17388 5.33461 5.30182 6.24412 4.68457 7.37695C4.06562 8.51161 3.75195 9.81981 3.75195 11.2627C3.75197 12.7063 4.06575 14.0129 4.68457 15.1475C5.30183 16.2813 6.17378 17.1916 7.27441 17.8525C8.37328 18.5125 9.66503 18.8477 11.1133 18.8477C12.5406 18.8477 13.822 18.5124 14.9209 17.8506C16.0205 17.1905 16.8974 16.2746 17.5264 15.1309C18.1553 13.987 18.4736 12.6843 18.4736 11.2617C18.4736 9.81968 18.1554 8.5116 17.5264 7.37695C16.8982 6.24413 16.0214 5.33379 14.9209 4.67285C13.8211 4.01272 12.5398 3.67774 11.1133 3.67773ZM46.25 18.5752H52.168C53.3587 18.5752 54.3421 18.3223 55.0898 17.8242C55.8332 17.3288 56.1942 16.5841 56.1943 15.5488C56.1943 14.82 55.98 14.2477 55.5566 13.8496C55.123 13.4414 54.5828 13.1453 53.9512 12.9697C53.3113 12.7926 52.6579 12.7032 52.0088 12.7031H46.25V18.5752ZM46.251 9.34082H51.8486C52.6957 9.32231 53.4567 9.07519 54.1084 8.60742C54.7568 8.14214 55.0724 7.50048 55.0732 6.64551C55.0732 5.67229 54.7388 4.99785 54.0518 4.58301C53.3555 4.16327 52.485 3.95121 51.4639 3.95117H46.251V9.34082Z" fill="white"/>
</svg>
