<svg width="128" height="45" viewBox="0 0 128 45" fill="none" xmlns="http://www.w3.org/2000/svg">
<path d="M11.1143 22.967C12.7243 22.9671 14.2234 23.249 15.5674 23.8049C16.9113 24.3618 18.0991 25.1469 19.0986 26.1379C20.0989 27.1297 20.8789 28.3042 21.417 29.6301C21.9543 30.9554 22.2275 32.4074 22.2275 33.9426C22.2275 35.4787 21.9542 36.9289 21.417 38.2542C20.8789 39.5803 20.0991 40.7563 19.0986 41.7473C18.0992 42.7382 16.9112 43.5226 15.5674 44.0793C14.2234 44.6353 12.7243 44.9182 11.1143 44.9182C9.50343 44.9182 8.00037 44.6353 6.64551 44.0793C5.28972 43.5225 4.1008 42.7382 3.11133 41.7463C2.12195 40.7545 1.34778 39.5794 0.810547 38.2542C0.273311 36.9306 2.76717e-05 35.4795 0 33.9426C0 32.4057 0.273284 30.9546 0.810547 29.6301C1.3478 28.305 2.12211 27.1297 3.1123 26.1379C4.10091 25.147 5.28979 24.3617 6.64551 23.8049C8.00033 23.2491 9.5035 22.967 11.1143 22.967ZM70.2598 28.217C71.8748 28.2171 73.3549 28.5777 74.6592 29.2874C75.9644 29.9987 77.0148 30.9915 77.7803 32.2395C78.5464 33.4891 78.9355 34.9452 78.9355 36.5676C78.9355 38.1902 78.5466 39.647 77.7803 40.8967C77.0148 42.1455 75.9644 43.1384 74.6592 43.8489C73.3549 44.5584 71.8747 44.9182 70.2598 44.9182C68.6438 44.9182 67.1574 44.5586 65.8438 43.8489C64.5277 43.1384 63.4715 42.1455 62.7061 40.8967C61.9398 39.6479 61.5508 38.1911 61.5508 36.5676C61.5508 34.9444 61.94 33.4882 62.7061 32.2395C63.4714 30.9916 64.5278 29.9979 65.8438 29.2874C67.1583 28.5768 68.6446 28.217 70.2598 28.217ZM88.5742 28.218C89.7631 28.218 90.8224 28.465 91.7217 28.9553C92.5133 29.3853 93.1741 29.8862 93.6895 30.4456V28.5491H97.251V44.6155H93.6904V42.3713C93.1801 42.9559 92.472 43.5119 91.5811 44.0276C90.563 44.6187 89.3671 44.9182 88.0283 44.9182C86.6028 44.9182 85.2826 44.5564 84.1055 43.8459C82.9282 43.1337 81.9815 42.136 81.291 40.8762C80.6022 39.619 80.252 38.159 80.252 36.5364C80.252 34.9148 80.6119 33.4601 81.3242 32.2122C82.0366 30.9625 83.0322 29.9731 84.2852 29.2727C85.5373 28.5723 86.9793 28.218 88.5742 28.218ZM127.947 44.6174H124.419V42.5784C123.929 43.1224 123.252 43.6346 122.405 44.1047C121.429 44.6439 120.311 44.9182 119.078 44.9182C117.546 44.9182 116.146 44.5584 114.915 43.8479C113.686 43.1357 112.701 42.1378 111.988 40.8782C111.278 39.6192 110.915 38.1694 110.915 36.5686C110.915 34.9452 111.278 33.4905 111.988 32.2424C112.701 30.9944 113.675 29.9998 114.884 29.2893C116.094 28.579 117.473 28.2181 118.981 28.218C120.189 28.218 121.301 28.4546 122.284 28.9231C123.157 29.338 123.875 29.8254 124.419 30.3713V22.679H127.947V44.6174ZM109.262 28.218C110.065 28.218 110.696 28.3231 111.138 28.5305L111.221 28.5696L110.298 32.1702L110.176 32.1125C109.971 32.016 109.715 31.9324 109.413 31.8635C109.112 31.7947 108.791 31.76 108.46 31.76C107.796 31.76 107.133 31.9239 106.489 32.2463C105.846 32.568 105.303 33.0347 104.878 33.6301C104.455 34.2213 104.241 34.9361 104.241 35.7532V44.6184H100.682V28.55H104.241V31.2034C104.712 30.3988 105.37 29.7172 106.201 29.1721C107.167 28.5389 108.196 28.218 109.262 28.218ZM33.502 28.218C35.0363 28.218 36.245 28.5189 37.0947 29.1135C37.9435 29.7081 38.5455 30.5183 38.8857 31.5227C39.2192 32.5163 39.3887 33.6351 39.3887 34.8479V44.6165H35.8613V35.0588C35.8613 34.3115 35.7556 33.6337 35.5469 33.0442C35.3422 32.4672 34.9901 32.0086 34.5 31.6819C34.0099 31.3552 33.31 31.2196 32.4199 31.2776C31.5796 31.2776 30.8298 31.445 30.1865 31.7776C29.5433 32.1093 29.0293 32.5549 28.6562 33.0999C28.2857 33.6416 28.0977 34.2508 28.0977 34.9084V44.6174H24.5703V28.55H28.0977V30.8264C28.6071 30.1823 29.3041 29.6002 30.1738 29.093C31.1699 28.5127 32.2895 28.2181 33.502 28.218ZM52.041 23.2688C54.2388 23.2688 55.9242 23.7337 57.0518 24.6516C58.1852 25.5755 58.7607 26.9347 58.7607 28.6917C58.7607 29.6547 58.5122 30.5273 58.0215 31.2864C57.5752 31.9776 56.9253 32.5393 56.0908 32.9592C56.708 33.1818 57.2933 33.4972 57.833 33.8977C58.452 34.358 58.9649 34.9546 59.3564 35.6702C59.7488 36.3882 59.9482 37.2689 59.9482 38.2883C59.9482 39.5295 59.7161 40.5737 59.2598 41.3909C58.8034 42.208 58.1973 42.862 57.458 43.3323C56.7237 43.8001 55.9015 44.1352 55.0156 44.3284C54.1356 44.5199 53.243 44.6174 52.3613 44.6174H42.5625V23.2688H52.041ZM119.527 31.1282C118.549 31.1282 117.673 31.365 116.926 31.8352C116.176 32.3055 115.58 32.9558 115.152 33.7688C114.725 34.5834 114.507 35.5255 114.507 36.5686C114.507 37.5916 114.725 38.529 115.152 39.3538C115.58 40.1767 116.176 40.8317 116.926 41.302C117.673 41.7705 118.549 42.009 119.527 42.009C120.528 42.009 121.414 41.7706 122.162 41.302C122.91 40.8317 123.501 40.1767 123.917 39.3538C124.335 38.529 124.547 37.5915 124.547 36.5686C124.547 35.5256 124.335 34.5832 123.917 33.7668C123.501 32.954 122.91 32.3038 122.162 31.8352C121.414 31.3649 120.528 31.1282 119.527 31.1282ZM70.2598 31.2776C69.3006 31.2776 68.4172 31.5007 67.6357 31.9417C66.8553 32.3817 66.2332 33.0075 65.7861 33.8C65.3381 34.5937 65.1215 35.5242 65.1426 36.5657C65.1216 37.591 65.3382 38.5112 65.7861 39.304C66.2341 40.0976 66.8561 40.7288 67.6367 41.179C68.4174 41.63 69.2998 41.8577 70.2598 41.8577C71.2188 41.8576 72.0957 41.63 72.8652 41.1799C73.6348 40.7298 74.2522 40.0985 74.7002 39.3049C75.1473 38.5122 75.3639 37.5917 75.3438 36.5706C75.364 35.5249 75.1474 34.5939 74.7002 33.801C74.2514 33.0075 73.6348 32.3817 72.8652 31.9417C72.0949 31.5009 71.2186 31.2776 70.2598 31.2776ZM88.7979 31.3088C87.8397 31.3089 86.9759 31.5375 86.2266 31.9875C85.4788 32.4377 84.8877 33.0623 84.4717 33.845C84.0557 34.6293 83.8438 35.5346 83.8438 36.5374C83.8438 37.5418 84.0557 38.4528 84.4717 39.2473C84.8894 40.04 85.4791 40.6765 86.2285 41.135C86.9761 41.5951 87.8398 41.8283 88.7979 41.8284C89.7983 41.8284 90.6868 41.5953 91.4346 41.135C92.1822 40.6765 92.7735 40.0417 93.1895 39.2473C93.6071 38.4528 93.8193 37.5402 93.8193 36.5374C93.8193 35.5565 93.6064 34.6596 93.1904 33.8752C92.7728 33.0909 92.1822 32.4605 91.4346 32.0002C90.6868 31.5417 89.7983 31.3088 88.7979 31.3088ZM11.1133 26.3567C9.66583 26.3567 8.37414 26.6918 7.27441 27.3518C6.17388 28.0136 5.30182 28.9231 4.68457 30.0559C4.06562 31.1906 3.75195 32.4988 3.75195 33.9417C3.75197 35.3852 4.06575 36.6919 4.68457 37.8264C5.30183 38.9602 6.17378 39.8705 7.27441 40.5315C8.37328 41.1915 9.66503 41.5266 11.1133 41.5266C12.5406 41.5266 13.822 41.1914 14.9209 40.5295C16.0205 39.8694 16.8974 38.9536 17.5264 37.8098C18.1553 36.666 18.4736 35.3633 18.4736 33.9407C18.4736 32.4986 18.1554 31.1906 17.5264 30.0559C16.8982 28.9231 16.0214 28.0127 14.9209 27.3518C13.8211 26.6917 12.5398 26.3567 11.1133 26.3567ZM46.25 41.2542H52.168C53.3587 41.2542 54.3421 41.0012 55.0898 40.5032C55.8332 40.0077 56.1942 39.263 56.1943 38.2278C56.1943 37.499 55.98 36.9266 55.5566 36.5286C55.123 36.1204 54.5828 35.8242 53.9512 35.6487C53.3113 35.4715 52.6579 35.3821 52.0088 35.3821H46.25V41.2542ZM46.251 32.0198H51.8486C52.6957 32.0013 53.4567 31.7541 54.1084 31.2864C54.7568 30.8211 55.0724 30.1794 55.0732 29.3245C55.0732 28.3512 54.7388 27.6768 54.0518 27.262C53.3555 26.8422 52.485 26.6302 51.4639 26.6301H46.251V32.0198Z" fill="white"/>
<path fill-rule="evenodd" clip-rule="evenodd" d="M127.951 9.22768L115.828 0V18.4562L127.951 9.22768Z" fill="#FF5C39"/>
<path fill-rule="evenodd" clip-rule="evenodd" d="M106.56 0V0H103.701V18.4562H106.56V18.4562C111.678 18.4562 115.827 14.3244 115.827 9.22852V9.22852C115.828 4.13181 111.678 0 106.56 0Z" fill="#C5299B"/>
<ellipse cx="94.6021" cy="9.22761" rx="9.09993" ry="9.06184" fill="#407EC9"/>
</svg>
