<svg width="38" height="38" viewBox="0 0 38 38" fill="none" xmlns="http://www.w3.org/2000/svg">
<g clip-path="url(#clip0_288_8768)">
<path fill-rule="evenodd" clip-rule="evenodd" d="M10.6416 16.2142C10.6416 13.4922 12.8482 11.2856 15.5702 11.2856H22.4273C25.1493 11.2856 27.3559 13.4922 27.3559 16.2142V23.0713C27.3559 25.7933 25.1493 27.9999 22.4273 27.9999H15.5702C12.8482 27.9999 10.6416 25.7933 10.6416 23.0713V16.2142ZM15.5702 12.5714C13.5583 12.5714 11.9273 14.2023 11.9273 16.2142V23.0713C11.9273 25.0832 13.5583 26.7142 15.5702 26.7142H22.4273C24.4392 26.7142 26.0701 25.0832 26.0701 23.0713V16.2142C26.0701 14.2023 24.4392 12.5714 22.4273 12.5714H15.5702Z" fill="white"/>
<path fill-rule="evenodd" clip-rule="evenodd" d="M26.713 16.857H11.2844V15.5713H26.713V16.857Z" fill="white"/>
<path fill-rule="evenodd" clip-rule="evenodd" d="M22.8559 10C22.5009 10 22.2131 10.2878 22.2131 10.6429V13.2143C22.2131 13.5693 22.5009 13.8571 22.8559 13.8571C23.211 13.8571 23.4988 13.5693 23.4988 13.2143V10.6429C23.4988 10.2878 23.211 10 22.8559 10Z" fill="white"/>
<path fill-rule="evenodd" clip-rule="evenodd" d="M15.1415 10C14.7865 10 14.4987 10.2878 14.4987 10.6429V13.2143C14.4987 13.5693 14.7865 13.8571 15.1415 13.8571C15.4966 13.8571 15.7844 13.5693 15.7844 13.2143V10.6429C15.7844 10.2878 15.4966 10 15.1415 10Z" fill="white"/>
<path fill-rule="evenodd" clip-rule="evenodd" d="M13.6416 19.6429C13.6416 19.9979 13.9294 20.2857 14.2845 20.2857H15.1416C15.4966 20.2857 15.7845 19.9979 15.7845 19.6429C15.7845 19.2878 15.4966 19 15.1416 19H14.2845C13.9294 19 13.6416 19.2878 13.6416 19.6429Z" fill="white"/>
<path fill-rule="evenodd" clip-rule="evenodd" d="M17.9272 19.6429C17.9272 19.9979 18.2151 20.2857 18.5701 20.2857H19.4272C19.7823 20.2857 20.0701 19.9979 20.0701 19.6429C20.0701 19.2878 19.7823 19 19.4272 19H18.5701C18.2151 19 17.9272 19.2878 17.9272 19.6429Z" fill="white"/>
<path fill-rule="evenodd" clip-rule="evenodd" d="M22.2129 19.6429C22.2129 19.9979 22.5007 20.2857 22.8558 20.2857H23.7129C24.068 20.2857 24.3558 19.9979 24.3558 19.6429C24.3558 19.2878 24.068 19 23.7129 19H22.8558C22.5007 19 22.2129 19.2878 22.2129 19.6429Z" fill="white"/>
<path fill-rule="evenodd" clip-rule="evenodd" d="M13.6416 23.0715C13.6416 23.4266 13.9294 23.7144 14.2845 23.7144H15.1416C15.4966 23.7144 15.7845 23.4266 15.7845 23.0715C15.7845 22.7165 15.4966 22.4287 15.1416 22.4287H14.2845C13.9294 22.4287 13.6416 22.7165 13.6416 23.0715Z" fill="white"/>
<path fill-rule="evenodd" clip-rule="evenodd" d="M17.9272 23.0715C17.9272 23.4266 18.2151 23.7144 18.5701 23.7144H19.4272C19.7823 23.7144 20.0701 23.4266 20.0701 23.0715C20.0701 22.7165 19.7823 22.4287 19.4272 22.4287H18.5701C18.2151 22.4287 17.9272 22.7165 17.9272 23.0715Z" fill="white"/>
<path fill-rule="evenodd" clip-rule="evenodd" d="M22.2129 23.0715C22.2129 23.4266 22.5007 23.7144 22.8558 23.7144H23.7129C24.0679 23.7144 24.3558 23.4266 24.3558 23.0715C24.3558 22.7165 24.0679 22.4287 23.7129 22.4287H22.8558C22.5007 22.4287 22.2129 22.7165 22.2129 23.0715Z" fill="white"/>
</g>
<defs>
<clipPath id="clip0_288_8768">
<rect width="18" height="18" fill="white" transform="translate(10 10)"/>
</clipPath>
</defs>
</svg>
