<svg width="38" height="38" viewBox="0 0 38 38" fill="none" xmlns="http://www.w3.org/2000/svg">
<g clip-path="url(#clip0_288_8786)">
<path fill-rule="evenodd" clip-rule="evenodd" d="M19 11.2558C14.723 11.2558 11.2558 14.723 11.2558 19C11.2558 20.2751 11.5635 21.4765 12.1081 22.5357C12.2915 22.8925 12.3411 23.3247 12.1972 23.7319L11.42 25.9313C11.3145 26.2299 11.6021 26.5176 11.9007 26.412L14.0127 25.6658C14.4362 25.5161 14.8861 25.5757 15.2508 25.7779C16.3611 26.3934 17.6386 26.7442 19 26.7442C23.277 26.7442 26.7442 23.277 26.7442 19C26.7442 14.723 23.277 11.2558 19 11.2558ZM10 19C10 14.0294 14.0294 10 19 10C23.9706 10 28 14.0294 28 19C28 23.9706 23.9706 28 19 28C17.4202 28 15.9337 27.5924 14.6418 26.8762C14.5628 26.8324 14.4859 26.8305 14.4311 26.8498L12.3191 27.5961C11.0251 28.0533 9.77869 26.8069 10.2359 25.5129L11.0131 23.3135C11.0318 23.2607 11.0309 23.1871 10.9912 23.1099C10.3574 21.8772 10 20.4794 10 19Z" fill="white"/>
<path d="M15.9022 19.0416C15.9022 19.6196 15.4337 20.0882 14.8557 20.0882C14.2777 20.0882 13.8092 19.6196 13.8092 19.0416C13.8092 18.4637 14.2777 17.9951 14.8557 17.9951C15.4337 17.9951 15.9022 18.4637 15.9022 19.0416Z" fill="white"/>
<path d="M20.0883 19.0416C20.0883 19.6196 19.6198 20.0881 19.0419 20.0881C18.4639 20.0881 17.9954 19.6196 17.9954 19.0416C17.9954 18.4637 18.4639 17.9951 19.0419 17.9951C19.6198 17.9951 20.0883 18.4637 20.0883 19.0416Z" fill="white"/>
<path d="M24.2744 19.0416C24.2744 19.6196 23.8059 20.0881 23.2279 20.0881C22.6499 20.0881 22.1814 19.6196 22.1814 19.0416C22.1814 18.4637 22.6499 17.9951 23.2279 17.9951C23.8059 17.9951 24.2744 18.4637 24.2744 19.0416Z" fill="white"/>
</g>
<defs>
<clipPath id="clip0_288_8786">
<rect width="18" height="18" fill="white" transform="translate(10 10)"/>
</clipPath>
</defs>
</svg>
