<svg width="38" height="38" viewBox="0 0 38 38" fill="none" xmlns="http://www.w3.org/2000/svg">
<g clip-path="url(#clip0_288_8756)">
<path fill-rule="evenodd" clip-rule="evenodd" d="M19.0025 11.2558C16.5349 11.2558 14.5344 13.2562 14.5344 15.7239V17.4758C14.5344 18.0726 14.3418 18.6046 14.1125 19.0641C13.9518 19.386 13.7506 19.7121 13.5708 20.0036C13.5032 20.1132 13.4386 20.2178 13.3803 20.3155C13.1887 20.6369 13.0784 21.0123 13.0784 21.4154C13.0784 22.4586 13.8204 23.3318 14.8248 23.4711C16.1397 23.6534 17.7535 23.8322 19.0026 23.8322C20.2517 23.8322 21.8654 23.6534 23.1803 23.4711C24.1847 23.3318 24.9267 22.4586 24.9267 21.4154C24.9267 21.0123 24.8164 20.6369 24.6248 20.3155C24.5665 20.2178 24.5019 20.1131 24.4343 20.0036C24.2545 19.7121 24.0533 19.3859 23.8926 19.064C23.6632 18.6046 23.4706 18.0726 23.4706 17.4758V15.7239C23.4706 13.2562 21.4702 11.2558 19.0025 11.2558ZM13.2786 15.7239C13.2786 12.5627 15.8413 10 19.0025 10C22.1638 10 24.7264 12.5627 24.7264 15.7239V17.4758C24.7264 17.8002 24.8307 18.1316 25.0162 18.5031C25.1502 18.7717 25.304 19.0208 25.4717 19.2925C25.5463 19.4133 25.6237 19.5387 25.7033 19.6723C26.0078 20.1827 26.1825 20.7796 26.1825 21.4154C26.1825 23.056 25.007 24.4856 23.3528 24.715C22.0277 24.8987 20.3427 25.088 19.0026 25.088C17.6624 25.088 15.9774 24.8987 14.6523 24.715C12.9982 24.4856 11.8226 23.056 11.8226 21.4154C11.8226 20.7796 11.9974 20.1828 12.3018 19.6723C12.3814 19.5388 12.4588 19.4134 12.5334 19.2925C12.7011 19.0208 12.8549 18.7717 12.9889 18.5032C13.1744 18.1317 13.2786 17.8002 13.2786 17.4758V15.7239Z" fill="white"/>
<path fill-rule="evenodd" clip-rule="evenodd" d="M21.1702 25.8729C20.8814 25.6809 20.4917 25.7593 20.2997 26.0481C20.0199 26.469 19.5432 26.7442 19.0025 26.7442C18.4619 26.7442 17.9852 26.469 17.7054 26.0481C17.5134 25.7593 17.1237 25.6809 16.8349 25.8729C16.5461 26.0649 16.4677 26.4547 16.6597 26.7434C17.1624 27.4995 18.0239 28 19.0025 28C19.9812 28 20.8427 27.4995 21.3454 26.7434C21.5374 26.4547 21.459 26.0649 21.1702 25.8729Z" fill="white"/>
</g>
<defs>
<clipPath id="clip0_288_8756">
<rect width="18" height="18" fill="white" transform="translate(10 10)"/>
</clipPath>
</defs>
</svg>
