<svg width="38" height="38" viewBox="0 0 38 38" fill="none" xmlns="http://www.w3.org/2000/svg">
<g clip-path="url(#clip0_288_8774)">
<path fill-rule="evenodd" clip-rule="evenodd" d="M14.814 12.0937C12.8489 12.0937 11.2558 13.6867 11.2558 15.6518V22.3495C11.2558 24.3146 12.8489 25.9077 14.814 25.9077H23.186C25.1512 25.9077 26.7442 24.3146 26.7442 22.3495V18.5821C26.7442 16.617 25.1512 15.0239 23.186 15.0239H21.1297C20.1158 15.0239 19.1643 14.5343 18.575 13.7092L17.9845 12.8825C17.6309 12.3875 17.06 12.0937 16.4517 12.0937H14.814ZM10 15.6518C10 12.9932 12.1553 10.8379 14.814 10.8379H16.4517C17.2509 10.8379 18.0113 11.1421 18.5862 11.6751H22.7674C25.1248 11.6751 27.0487 13.5309 27.1579 15.8613C27.6891 16.6353 28 17.5724 28 18.5821V22.3495C28 25.0082 25.8447 27.1635 23.186 27.1635H14.814C12.1553 27.1635 10 25.0082 10 22.3495V15.6518ZM25.3458 14.2786C24.7786 13.464 23.8353 12.9309 22.7674 12.9309H19.5623L19.5969 12.9793C19.9505 13.4743 20.5214 13.7681 21.1297 13.7681H23.186C23.9626 13.7681 24.6962 13.952 25.3458 14.2786Z" fill="white"/>
<path fill-rule="evenodd" clip-rule="evenodd" d="M18.3721 22.768C18.3721 22.4212 18.6532 22.1401 19 22.1401H24.0233C24.37 22.1401 24.6512 22.4212 24.6512 22.768C24.6512 23.1148 24.37 23.3959 24.0233 23.3959H19C18.6532 23.3959 18.3721 23.1148 18.3721 22.768Z" fill="white"/>
</g>
<defs>
<clipPath id="clip0_288_8774">
<rect width="18" height="18" fill="white" transform="translate(10 10)"/>
</clipPath>
</defs>
</svg>
