<svg width="38" height="38" viewBox="0 0 38 38" fill="none" xmlns="http://www.w3.org/2000/svg">
<path fill-rule="evenodd" clip-rule="evenodd" d="M16.084 23.0046C19.0673 25.3693 23.3778 24.9942 25.9077 22.1495C28.4375 19.3049 28.307 14.9801 25.6102 12.2932C22.9134 9.60635 18.5881 9.4918 15.7529 12.0322C12.9176 14.5725 12.5584 18.8844 14.9341 21.8589L10 26.7888L11.1499 27.9387L16.084 23.0046ZM16.6261 13.4603C18.2141 11.8723 20.6023 11.3972 22.6772 12.2566C24.752 13.116 26.1048 15.1407 26.1048 17.3864C26.1048 19.6322 24.752 21.6569 22.6772 22.5163C20.6023 23.3757 18.2141 22.9006 16.6261 21.3126C15.5797 20.2741 14.9911 18.8608 14.9911 17.3864C14.9911 15.9121 15.5797 14.4988 16.6261 13.4603Z" fill="white"/>
</svg>
