<svg width="38" height="38" viewBox="0 0 38 38" fill="none" xmlns="http://www.w3.org/2000/svg">
<g clip-path="url(#clip0_288_8780)">
<path fill-rule="evenodd" clip-rule="evenodd" d="M19.0025 17.1162C20.0428 17.1162 20.8862 17.9595 20.8862 18.9999C20.8862 20.0402 20.0428 20.8836 19.0025 20.8836C17.9621 20.8836 17.1187 20.0402 17.1187 18.9999C17.1187 17.9595 17.9621 17.1162 19.0025 17.1162ZM22.142 18.9999C22.142 17.266 20.7364 15.8604 19.0025 15.8604C17.2685 15.8604 15.8629 17.266 15.8629 18.9999C15.8629 20.7338 17.2685 22.1394 19.0025 22.1394C20.7364 22.1394 22.142 20.7338 22.142 18.9999Z" fill="white"/>
<path fill-rule="evenodd" clip-rule="evenodd" d="M16.7882 10.2746C17.4972 10.0952 18.2392 10 19.0024 10C19.7657 10 20.5077 10.0952 21.2168 10.2746C21.7955 10.421 22.0943 10.9208 22.1904 11.3362C22.3042 11.8283 22.6131 12.2716 23.0839 12.5434C23.5168 12.7934 24.0062 12.8521 24.4576 12.7456C24.8724 12.6478 25.4517 12.6944 25.8393 13.1468C26.56 13.9879 27.1286 14.9641 27.5016 16.0327C27.7243 16.6706 27.3793 17.245 27.0149 17.5452C26.5944 17.8917 26.328 18.4145 26.328 19C26.328 19.5855 26.5944 20.1083 27.0149 20.4548C27.3793 20.7549 27.7243 21.3294 27.5016 21.9673C27.1286 23.0358 26.5602 24.0119 25.8396 24.8529C25.4519 25.3054 24.8726 25.3519 24.4577 25.2541C24.0063 25.1476 23.5168 25.2063 23.0839 25.4563C22.613 25.7281 22.3042 26.1715 22.1903 26.6637C22.0942 27.0791 21.7954 27.579 21.2167 27.7254C20.5077 27.9048 19.7657 28 19.0024 28C18.2392 28 17.4973 27.9049 16.7883 27.7255C16.2095 27.579 15.9107 27.0792 15.8146 26.6637C15.7008 26.1715 15.392 25.7281 14.9211 25.4563C14.4882 25.2063 13.9987 25.1476 13.5472 25.2541C13.1323 25.352 12.553 25.3054 12.1653 24.8529C11.4447 24.0119 10.8762 23.0358 10.5032 21.9673C10.2805 21.3294 10.6256 20.7549 10.9899 20.4548C11.4105 20.1083 11.6768 19.5855 11.6768 19C11.6768 18.4145 11.4105 17.8917 10.9899 17.5452C10.6256 17.245 10.2805 16.6706 10.5032 16.0327C10.8763 14.9641 11.4448 13.9879 12.1656 13.1468C12.5532 12.6944 13.1325 12.6478 13.5473 12.7456C13.9987 12.8521 14.4882 12.7934 14.9211 12.5434C15.3919 12.2716 15.7007 11.8283 15.8146 11.3362C15.9107 10.9208 16.2095 10.421 16.7882 10.2746ZM17.1012 11.4908C17.0991 11.4926 17.0954 11.496 17.0905 11.5021C17.0733 11.523 17.0512 11.5628 17.0381 11.6193C16.849 12.4363 16.3336 13.178 15.549 13.631C14.8282 14.0472 14.0095 14.1449 13.2591 13.9679C13.2028 13.9546 13.1574 13.9568 13.1311 13.963C13.1233 13.9648 13.1186 13.9665 13.116 13.9676C12.4979 14.6898 12.0108 15.5266 11.6908 16.4413C11.6913 16.4444 11.6928 16.4499 11.696 16.4582C11.7079 16.4886 11.7375 16.534 11.7885 16.576C12.4861 17.1508 12.9327 18.0235 12.9327 19C12.9327 19.9765 12.4861 20.8492 11.7885 21.424C11.7375 21.466 11.7079 21.5114 11.696 21.5418C11.6928 21.5501 11.6913 21.5556 11.6908 21.5587C12.0108 22.4733 12.4978 23.31 13.1158 24.0321C13.1184 24.0333 13.1231 24.035 13.1309 24.0368C13.1572 24.0429 13.2026 24.0451 13.2589 24.0318C14.0094 23.8548 14.8281 23.9525 15.549 24.3687C16.3337 24.8218 16.8492 25.5636 17.0381 26.3807C17.0512 26.4372 17.0734 26.4771 17.0905 26.498C17.0955 26.504 17.0991 26.5075 17.1013 26.5093C17.7089 26.6626 18.3457 26.7442 19.0024 26.7442C19.6592 26.7442 20.2961 26.6626 20.9037 26.5092C20.9059 26.5074 20.9095 26.504 20.9144 26.4979C20.9316 26.477 20.9538 26.4372 20.9668 26.3807C21.1558 25.5636 21.6712 24.8218 22.456 24.3687C23.1768 23.9525 23.9955 23.8548 24.746 24.0318C24.8022 24.0451 24.8477 24.0429 24.874 24.0368C24.8818 24.035 24.8865 24.0332 24.8891 24.0321C25.507 23.3099 25.9941 22.4732 26.3141 21.5587C26.3135 21.5556 26.3121 21.5501 26.3089 21.5418C26.297 21.5114 26.2673 21.466 26.2164 21.424C25.5187 20.8492 25.0722 19.9765 25.0722 19C25.0722 18.0235 25.5187 17.1508 26.2164 16.576C26.2673 16.534 26.297 16.4886 26.3089 16.4582C26.3121 16.4499 26.3135 16.4444 26.3141 16.4412C25.9941 15.5266 25.5069 14.6899 24.8889 13.9677C24.8863 13.9665 24.8816 13.9648 24.8738 13.963C24.8475 13.9569 24.802 13.9547 24.7458 13.9679C23.9954 14.1449 23.1768 14.0471 22.456 13.631C21.6713 13.178 21.1559 12.4363 20.9669 11.6193C20.9538 11.5628 20.9317 11.523 20.9145 11.5021C20.9095 11.496 20.9059 11.4926 20.9038 11.4908C20.2961 11.3374 19.6592 11.2558 19.0024 11.2558C18.3457 11.2558 17.7088 11.3374 17.1012 11.4908Z" fill="white"/>
</g>
<defs>
<clipPath id="clip0_288_8780">
<rect width="18" height="18" fill="white" transform="translate(10 10)"/>
</clipPath>
</defs>
</svg>
