<svg width="38" height="38" viewBox="0 0 38 38" fill="none" xmlns="http://www.w3.org/2000/svg">
<g clip-path="url(#clip0_288_8792)">
<path fill-rule="evenodd" clip-rule="evenodd" d="M12.1799 14.0909C12.1799 14.5428 12.5462 14.9091 12.9981 14.9091H26.0891C26.5409 14.9091 26.9073 14.5428 26.9073 14.0909C26.9073 13.639 26.5409 13.2727 26.0891 13.2727H12.9981C12.5462 13.2727 12.1799 13.639 12.1799 14.0909Z" fill="white"/>
<path fill-rule="evenodd" clip-rule="evenodd" d="M25.8301 14.2838C25.9366 14.1773 25.9366 14.0046 25.8301 13.8981L23.3287 11.3967C23.0092 11.0772 23.0092 10.5592 23.3287 10.2396C23.6482 9.92012 24.1663 9.92012 24.4858 10.2396L26.9871 12.741C27.7327 13.4865 27.7327 14.6953 26.9871 15.4409L24.4858 17.9422C24.1663 18.2617 23.6482 18.2617 23.3287 17.9422C23.0092 17.6227 23.0092 17.1046 23.3287 16.7851L25.8301 14.2838Z" fill="white"/>
<path fill-rule="evenodd" clip-rule="evenodd" d="M11.089 23.909C11.089 24.3608 11.4553 24.7272 11.9072 24.7272H24.9981C25.45 24.7272 25.8163 24.3608 25.8163 23.909C25.8163 23.4571 25.45 23.0908 24.9981 23.0908H11.9072C11.4553 23.0908 11.089 23.4571 11.089 23.909Z" fill="white"/>
<path fill-rule="evenodd" clip-rule="evenodd" d="M12.1662 24.1019C12.0597 23.9954 12.0597 23.8227 12.1662 23.7162L14.6676 21.2149C14.9871 20.8954 14.9871 20.3773 14.6676 20.0578C14.348 19.7382 13.83 19.7382 13.5105 20.0578L11.0091 22.5591C10.2636 23.3047 10.2636 24.5135 11.0091 25.259L13.5105 27.7604C13.83 28.0799 14.348 28.0799 14.6676 27.7604C14.9871 27.4408 14.9871 26.9228 14.6676 26.6033L12.1662 24.1019Z" fill="white"/>
</g>
<defs>
<clipPath id="clip0_288_8792">
<rect width="18" height="18" fill="white" transform="translate(10 10)"/>
</clipPath>
</defs>
</svg>
