<svg width="98" height="98" viewBox="0 0 98 98" fill="none" xmlns="http://www.w3.org/2000/svg">
<path d="M43.5277 20.9232C44.0871 20.9232 44.3886 20.5795 44.4745 20.064C45.7659 13.1039 45.6366 12.7602 53.1258 11.4283C53.6422 11.2994 53.9863 10.9987 53.9863 10.4401C53.9863 9.92457 53.6422 9.58086 53.1258 9.49492C45.6366 8.16306 45.7659 7.81935 44.4745 0.85927C44.3886 0.343708 44.0871 0 43.5277 0C42.968 0 42.6669 0.343708 42.5808 0.85927C41.2896 7.81935 41.4187 8.16306 33.9296 9.49492C33.3701 9.58086 33.0688 9.92457 33.0688 10.4401C33.0688 10.9987 33.3701 11.2994 33.9296 11.4283C41.4187 12.7602 41.2896 13.1039 42.5808 20.064C42.6669 20.5795 42.968 20.9232 43.5277 20.9232Z" fill="url(#paint0_linear_1190_214)"/>
<path d="M22.6956 50.4807C23.5134 50.4807 24.0729 49.9224 24.159 49.1488C25.7084 37.6776 26.0958 37.6776 37.975 35.4006C38.7066 35.2717 39.2662 34.7562 39.2662 33.9399C39.2662 33.1666 38.7066 32.608 37.975 32.5221C26.0958 30.8465 25.6654 30.4598 24.159 18.8167C24.0729 18.0004 23.5134 17.4419 22.6956 17.4419C21.9209 17.4419 21.3613 18.0004 21.2322 18.8597C19.8549 30.331 19.2093 30.288 7.41621 32.5221C6.68453 32.651 6.125 33.1666 6.125 33.9399C6.125 34.7992 6.68453 35.2717 7.58838 35.4006C19.2954 37.2911 19.8549 37.5918 21.2322 49.063C21.3613 49.9224 21.9209 50.4807 22.6956 50.4807Z" fill="url(#paint1_linear_1190_214)"/>
<path d="M51.8783 98.0002C52.9974 98.0002 53.8154 97.1837 54.0306 96.0237C57.0864 72.5225 60.4003 68.9138 83.7284 66.3361C84.9334 66.2071 85.7514 65.3477 85.7514 64.1877C85.7514 63.0706 84.9334 62.2116 83.7284 62.0826C60.4003 59.5048 57.0864 55.8958 54.0306 32.3518C53.8154 31.1918 52.9974 30.4185 51.8783 30.4185C50.7592 30.4185 49.9417 31.1918 49.7694 32.3518C46.7137 55.8958 43.3564 59.5048 20.0716 62.0826C18.8234 62.2116 18.0056 63.0706 18.0056 64.1877C18.0056 65.3477 18.8234 66.2071 20.0716 66.3361C43.3134 69.3864 46.5414 72.5225 49.7694 96.0237C49.9417 97.1837 50.7592 98.0002 51.8783 98.0002Z" fill="url(#paint2_linear_1190_214)"/>
<defs>
<linearGradient id="paint0_linear_1190_214" x1="43.5276" y1="0" x2="43.5276" y2="20.9232" gradientUnits="userSpaceOnUse">
<stop stop-color="#FF5C39"/>
<stop offset="1" stop-color="#FF9532"/>
</linearGradient>
<linearGradient id="paint1_linear_1190_214" x1="22.6956" y1="17.4419" x2="22.6956" y2="50.4807" gradientUnits="userSpaceOnUse">
<stop stop-color="#C5299B"/>
<stop offset="1" stop-color="#FF5C39"/>
</linearGradient>
<linearGradient id="paint2_linear_1190_214" x1="51.8785" y1="30.4185" x2="51.8785" y2="113.313" gradientUnits="userSpaceOnUse">
<stop offset="0.26" stop-color="#407EC9"/>
<stop offset="1" stop-color="#C5299B"/>
</linearGradient>
</defs>
</svg>
